# xmcd
# 
# Track frame offsets:
#     150
#     14151
#     26347
#     40401
#     52875
#     65215
#     79052
#     91382
#     104042
#     115170
#     126640
#     137499
#     150066
#     160757
#     172667
#     182371
#     194156
#     207372
#     220358
#     232858
#     245866
#     258690
#     271019
#     283633
# 
# Disc length: 4121
# 
# Revision: 2
# Processed by: cddbd v1.5.2PL0 Copyright (c) Steve Scherf et al.
# Submitted via: fre:ac v1.0.17
# 
DISCID=5a101718
DTITLE=Various Artist - The Best Of King Gospel
DYEAR=2003
DGENRE=Gospel
TTITLE0=The Four Internes - It's All Right Now
TTITLE1=The Spirit Of Memphis Quartet - The Atomic Telephone
TTITLE2=Swan's Silvertone Singers - Toll The Bell
TTITLE3=The Nightingales - My Life Is In His Hands
TTITLE4=The Trumpeteers - Nobody's Fault But Mine
TTITLE5=Swan's Silvertone Singers - Live So God Can Use You
TTITLE6=The Trumpeteers - Who Is Your Friend
TTITLE7=The Cumberland River Singers - Jesus Is A Rock
TTITLE8=Swan's Silvertone Singers - All Aboard
TTITLE9=The Nightingales - Seek And You Shall Find
TTITLE10=The Spirit Of Memphis Quartet - Working Till The Day Is Done
TTITLE11=The Nightingales - Something Within Me
TTITLE12=The Four Internes - I'm Using My Bible As My Road Map
TTITLE13=The Cumberland River Singers - I Wonder Who Cares
TTITLE14=The Four Internes - In That Great Reunion
TTITLE15=The Trumpeteers - Lay Down My Heavy Burden
TTITLE16=The Nightingales - It's A Highway To Heaven
TTITLE17=The Cumberland River Singers - Too Close To Heaven
TTITLE18=The Four Internes - Going Back To Jesus
TTITLE19=Swan's Silvertone Singers - Long Ago
TTITLE20=The Trumpeteers - Where Shall I Go
TTITLE21=The Spirit Of Memphis Quartet - That Awful Day
TTITLE22=The Cumberland River Singers - Jesus Is All The World (To Me)
TTITLE23=The Spirit Of Memphis Quartet - Lord Jesus Parts 1 and 2
EXTD=YEAR: 2003
EXTT0=
EXTT1=
EXTT2=
EXTT3=
EXTT4=
EXTT5=
EXTT6=
EXTT7=
EXTT8=
EXTT9=
EXTT10=
EXTT11=
EXTT12=
EXTT13=
EXTT14=
EXTT15=
EXTT16=
EXTT17=
EXTT18=
EXTT19=
EXTT20=
EXTT21=
EXTT22=
EXTT23=
PLAYORDER=
